# xmcd CD database file
#
# Track frame offsets:
#	150
#	26971
#	42290
#	60489
#	75008
#	92311
#	109683
#	125599
#	143386
#	161426
#	181302
#	199626
#
# Disc length: 2826 seconds
#
# Revision: 0
# Processed by: cddbd v1.5.1PL0 Copyright (c) Steve Scherf et al.
# Submitted via: CDex 1.51
#
DISCID=880b080c
DTITLE=Jake Shimabukuro - Walking Down Rainhill
DYEAR=2004
DGENRE=Jazz
TTITLE0=Heartbeat
TTITLE1=Rainbow
TTITLE2=Walking Down Rainhill
TTITLE3=Granma's Groove
TTITLE4=In The Morning
TTITLE5=Toastman's Wave
TTITLE6=Blue Roses Falling
TTITLE7=Hikaru Kaigara
TTITLE8=Wes On Four
TTITLE9=While My Guiter Gently Weeps
TTITLE10=Tradewinds
TTITLE11=Heartbeat(Reprise)
EXTD=YEAR: 2004
EXTT0=
EXTT1=
EXTT2=
EXTT3=
EXTT4=
EXTT5=
EXTT6=
EXTT7=
EXTT8=
EXTT9=
EXTT10=
EXTT11=
PLAYORDER=
